<svg xmlns="http://www.w3.org/2000/svg" viewBox="0 0 286.53 70.5"><defs><style>.cls-1{fill:#d62028;}.cls-2{fill:#231f20;}</style></defs><title>Segmentify</title><g id="Layer_2" data-name="Layer 2"><g id="Layer_1-2" data-name="Layer 1"><path class="cls-1" d="M286.53,30.83C286.53,13.82,273,0,256.4,0a30.25,30.25,0,0,0-29,22.39h0a3.89,3.89,0,0,0-.15,1.07,3.71,3.71,0,0,0,7.29,1A22.79,22.79,0,0,1,256.37,7.6c12.54,0,22.7,10.4,22.7,23.23a24.14,24.14,0,0,1-.35,4.07h0a4.62,4.62,0,0,0-.06.64,3.72,3.72,0,0,0,7.43.37A32.06,32.06,0,0,0,286.53,30.83Z"/><path class="cls-2" d="M1.27,58.64A2.53,2.53,0,0,1,0,56.34a2.67,2.67,0,0,1,2.63-2.7h.06A3,3,0,0,1,4.12,54a15.48,15.48,0,0,0,8.35,2.82c2.85,0,4.5-1.21,4.5-3.13v-.11c0-2.25-3.08-3-6.48-4.06-4.28-1.21-9.06-3-9.06-8.51v-.12c0-5.51,4.56-8.85,10.32-8.85a20,20,0,0,1,9.12,2.36,2.81,2.81,0,0,1,1.59,2.5,2.67,2.67,0,0,1-2.65,2.69h-.09a2.54,2.54,0,0,1-1.32-.33,15.8,15.8,0,0,0-6.8-2c-2.58,0-4.07,1.21-4.07,2.86v.11c0,2.15,3.13,3,6.54,4.12,4.23,1.32,9,3.24,9,8.46V53c0,6.1-4.72,9.12-10.76,9.12A19.76,19.76,0,0,1,1.27,58.64Z"/><path class="cls-2" d="M41.07,62.2c-8.4,0-14.88-6.1-14.88-15.07V47C26.19,38.76,32.07,32,40.36,32c9.23,0,13.78,7.58,13.78,14.28a3.11,3.11,0,0,1-3,3.19H32.84c.71,4.72,4.06,7.35,8.34,7.35a10.42,10.42,0,0,0,6.87-2.52,2.47,2.47,0,0,1,1.7-.61,2.61,2.61,0,0,1,2.63,2.6v.1a2.91,2.91,0,0,1-.88,2A14.81,14.81,0,0,1,41.07,62.2ZM47.67,45c-.44-4.28-3-7.63-7.36-7.63-4.06,0-6.92,3.13-7.52,7.63Z"/><path class="cls-2" d="M60.57,67.87a2.72,2.72,0,0,1-1.87-2.64,2.8,2.8,0,0,1,2.8-2.74,2.56,2.56,0,0,1,1.21.28,17.77,17.77,0,0,0,8.9,2.3c5.92,0,9.17-3.07,9.17-8.89V53.94c-2.43,3.13-5.44,5.34-10.21,5.34-6.8,0-13.18-5.05-13.18-13.56v-.11C57.39,37,63.82,32,70.57,32a12.51,12.51,0,0,1,10.16,4.94V35.53a3.32,3.32,0,0,1,6.64,0v20c0,4.89-1.26,8.52-3.67,10.93-2.64,2.63-6.71,3.89-11.92,3.89A25.13,25.13,0,0,1,60.57,67.87ZM80.83,45.63v-.11c0-4.73-3.89-8-8.51-8s-8.26,3.18-8.26,8v.11c0,4.72,3.67,8,8.26,8S80.83,50.35,80.83,45.63Z"/><path class="cls-2" d="M93.62,35.58a3.28,3.28,0,0,1,3.21-3.35h.08a3.33,3.33,0,0,1,3.35,3.31v1.39c1.87-2.58,4.37-5,8.84-5A9.2,9.2,0,0,1,117.77,37a11.69,11.69,0,0,1,9.78-5.11c6.32,0,10.16,4,10.16,11.1V58.51a3.24,3.24,0,0,1-3.18,3.3h-.11a3.28,3.28,0,0,1-3.35-3.21V45.08c0-4.61-2.15-7.09-5.88-7.09s-6.2,2.53-6.2,7.2V58.53a3.32,3.32,0,0,1-6.64,0V45c0-4.5-2.2-7-5.88-7s-6.2,2.74-6.2,7.19V58.53a3.33,3.33,0,0,1-6.65,0Z"/><path class="cls-2" d="M157,62.2c-8.41,0-14.89-6.1-14.89-15.07V47c0-8.29,5.88-15.1,14.17-15.1,9.23,0,13.79,7.57,13.79,14.28a3.11,3.11,0,0,1-3,3.18H148.75c.71,4.72,4.06,7.36,8.35,7.36A10.44,10.44,0,0,0,164,54.21a2.46,2.46,0,0,1,1.7-.6,2.61,2.61,0,0,1,2.64,2.59v.1a3,3,0,0,1-.88,2A14.69,14.69,0,0,1,157,62.2ZM163.57,45c-.43-4.28-3-7.63-7.35-7.63-4.06,0-6.92,3.13-7.52,7.63Z"/><path class="cls-2" d="M174.78,35.58A3.28,3.28,0,0,1,178,32.23h.08a3.33,3.33,0,0,1,3.35,3.31V37C183.28,34.32,186,32,190.48,32c6.54,0,10.33,4.38,10.33,11.1V58.53a3.24,3.24,0,0,1-3.18,3.3h-.12a3.3,3.3,0,0,1-3.35-3.22V45.08c0-4.51-2.25-7.09-6.2-7.09s-6.54,2.7-6.54,7.2V58.53a3.32,3.32,0,0,1-6.64,0Z"/><path class="cls-2" d="M208.1,53.53V38.27H207a2.86,2.86,0,1,1,0-5.71h1.1v-5a3.32,3.32,0,0,1,6.64,0v5H220a2.86,2.86,0,0,1,.24,5.71h-5.45V52.48c0,2.58,1.31,3.62,3.56,3.62a15.35,15.35,0,0,0,1.65-.16,2.8,2.8,0,0,1,2.8,2.74A2.83,2.83,0,0,1,221,61.26a12.9,12.9,0,0,1-4.56.77C211.56,62.05,208.1,59.9,208.1,53.53Z"/><path class="cls-2" d="M227.59,35.58a3.29,3.29,0,0,1,3.21-3.35h.09a3.33,3.33,0,0,1,3.35,3.31v23a3.33,3.33,0,0,1-6.65,0Z"/><path class="cls-2" d="M242.31,38.27h-1.15a2.76,2.76,0,0,1-2.8-2.73h0a2.8,2.8,0,0,1,2.8-2.8h1.15V30.58c0-3.18.82-5.6,2.36-7.13s3.68-2.31,6.55-2.31a18.85,18.85,0,0,1,3.35.27,2.76,2.76,0,0,1-.49,5.49,12.44,12.44,0,0,0-1.37-.11c-2.53,0-3.85,1.38-3.85,4.38v1.59H254a2.73,2.73,0,0,1,2.8,2.66v.09A2.77,2.77,0,0,1,254,38.25H249V58.51a3.32,3.32,0,0,1-6.64,0Z"/><path class="cls-2" d="M261.53,69.68a2.83,2.83,0,0,1-2.09-2.75,2.67,2.67,0,0,1,2.6-2.74h.09a3.29,3.29,0,0,1,1.21.22,7.31,7.31,0,0,0,2.31.38c2,0,3-.82,4.12-3.07l.22-.61-10.76-24a4.37,4.37,0,0,1-.39-1.59A3.2,3.2,0,0,1,262,32.22h.16c1.7,0,2.63,1,3.24,2.52L273.15,54,276,46.9c.55-1.37,1.48-2.53,3.18-2.53a3.14,3.14,0,0,1,3.18,3.1v0a6.25,6.25,0,0,1-.28,1.6l-6.23,13.27c-2.47,5.93-5.1,8.13-9.77,8.13A11.81,11.81,0,0,1,261.53,69.68Z"/></g></g></svg>